GIL02_fast3_RRA_states
nRows=5
nColumns=47

# SIMM Motion File Header:
name GIL02_fast3_RRA_states
datacolumns 47
datarows 5
otherdata 1
range 0.72067000000000048000 0.72267000000000048000
endheader
time	pelvis_tx	pelvis_ty	pelvis_tz	pelvis_tilt	pelvis_list	pelvis_rotation	hip_flexion_r	hip_adduction_r	hip_rotation_r	knee_angle_r	ankle_angle_r	subtalar_angle_r	mtp_angle_r	hip_flexion_l	hip_adduction_l	hip_rotation_l	knee_angle_l	ankle_angle_l	subtalar_angle_l	mtp_angle_l	lumbar_extension	lumbar_bending	lumbar_rotation	pelvis_tx_u	pelvis_ty_u	pelvis_tz_u	pelvis_tilt_u	pelvis_list_u	pelvis_rotation_u	hip_flexion_r_u	hip_adduction_r_u	hip_rotation_r_u	knee_angle_r_u	ankle_angle_r_u	subtalar_angle_r_u	mtp_angle_r_u	hip_flexion_l_u	hip_adduction_l_u	hip_rotation_l_u	knee_angle_l_u	ankle_angle_l_u	subtalar_angle_l_u	mtp_angle_l_u	lumbar_extension_u	lumbar_bending_u	lumbar_rotation_u
      0.72067000000000048000	      1.45260248402408810000	      0.95351597738025617000	     -0.18721299335986491000	     -2.50998551843254170000	      5.61120434903102440000	     -4.17208133697035600000	     21.61571885358671400000	     -7.66714361482074920000	      8.79762039796910500000	    -57.38489351865992200000	     -1.15713203057209400000	      0.00000000000030613910	     -0.00000000000108592032	      3.82635238311371890000	     12.15352104257230600000	      3.50205901284430080000	     -9.18659998341669310000	      6.83728105987379210000	     -0.00000000000000261024	      0.00000000000002232053	      1.46241294941284840000	     -4.09718560912067090000	      0.41365048204495158000	      1.31878648899363740000	      0.10896592709208500000	      0.00079798735403599410	      0.81084615647772573000	    -29.44916815600835500000	      2.87818771282808280000	    125.49902193979524000000	     56.84109573921777100000	     63.31251920959206800000	    191.97577772854854000000	     94.22797281553775400000	      0.00000000000091967123	     -0.00000000000283338864	   -157.63775716805620000000	    -28.70953960026537600000	     12.18494403715130400000	    117.35251397447909000000	     -0.55642832411230392000	      0.00000000000004829121	      0.00000000000024505028	    -14.89482635402551100000	     29.09521645425302700000	     -4.90547033438680650000
      0.72117000000000042000	      1.45326194957306170000	      0.95357020462228836000	     -0.18721252480055867000	     -2.50955961942921310000	      5.59649364622908510000	     -4.17058206432543700000	     21.67826773295464100000	     -7.63873320637635090000	      8.82923784422182580000	    -57.28845666026822400000	     -1.11016863379119020000	      0.00000000000030659877	     -0.00000000000108733759	      3.74745424410164190000	     12.13915146652869700000	      3.50835419106027090000	     -9.12783761322081590000	      6.83689373581722930000	     -0.00000000000000258839	      0.00000000000002245067	      1.45495896664731790000	     -4.08269057928291620000	      0.41118522385672346000	      1.31907583012055210000	      0.10794113686725133000	      0.00107556086800352730	      0.89266197220856425000	    -29.39409268546228700000	      3.11920354929451760000	    124.69657907649039000000	     56.80023527038703400000	     63.15477401696668400000	    193.77055834080940000000	     93.62500622694523100000	      0.00000000000091944804	     -0.00000000000283481476	   -157.95451283654063000000	    -28.76910427250240300000	     12.99823211454980200000	    117.69654615155675000000	     -0.99291587968447348000	      0.00000000000003464624	      0.00000000000025567330	    -14.92110801383550000000	     28.88549700085518500000	     -4.95588329815153640000
      0.72167000000000048000	      1.45392155997151940000	      0.95362391660653933000	     -0.18721191847008567000	     -2.50909294741168810000	      5.58180981605020320000	     -4.16896184942485440000	     21.74041553114788200000	     -7.61034368739390570000	      8.86077268626962320000	    -57.19112406587690600000	     -1.06350763939611340000	      0.00000000000030705859	     -0.00000000000108875477	      3.66839816142950110000	     12.12475160678243000000	      3.51505966959458680000	     -9.06890384547510030000	      6.83628805212383470000	     -0.00000000000000257142	      0.00000000000002258224	      1.44749184326704980000	     -4.06829952706423190000	      0.40869429530174323000	      1.31936587478046750000	      0.10690488443618461000	      0.00134910745927307440	      0.97393200015630188000	    -29.34165903716739300000	      3.36192307734914310000	    123.89472807042145000000	     56.75752780843469500000	     62.98211459131312000000	    195.55870339845333000000	     93.01835008227458000000	      0.00000000000092069261	     -0.00000000000283419085	   -158.26952124827625000000	    -28.83065787163192800000	     13.82606702374053000000	    118.03812870698012000000	     -1.42995212312665010000	      0.00000000000001922063	      0.00000000000029600471	    -14.94737846248104100000	     28.67928811618468300000	     -5.00811688721016960000
      0.72217000000000042000	      1.45458131555683010000	      0.95367710760825020000	     -0.18721117633652773000	     -2.50858576939397260000	      5.56715154634886210000	     -4.16721987101757650000	     21.80216256310148600000	     -7.58197598572321410000	      8.89221744395237400000	    -57.09289908150948600000	     -1.01715091578950780000	      0.00000000000030751889	     -0.00000000000109017161	      3.58918501210835040000	     12.11032047334389000000	      3.52218265678444760000	     -9.00979989838329410000	      6.83546370693209490000	     -0.00000000000000255793	      0.00000000000002273162	      1.44001157950760210000	     -4.05401070907864460000	      0.40617682778697195000	      1.31965657302434570000	      0.10585724250315849000	      0.00161879307024397890	      1.05471016586680340000	    -29.29187049022026200000	      3.60626372141459580000	    123.09349050648612000000	     56.71297741290730700000	     62.79436601153704300000	    197.34009837129000000000	     92.40790225038992400000	      0.00000000000092112964	     -0.00000000000283316766	   -158.58279376985493000000	    -28.89422324501004600000	     14.66829316626696700000	    118.37722768215615000000	     -1.86744634655392750000	      0.00000000000002592136	      0.00000000000033357051	    -14.97370096955896600000	     28.47657199098183500000	     -5.06202553163326210000
      0.72267000000000048000	      1.45524121664525110000	      0.95372977196288700000	     -0.18721030029312366000	     -2.50803831014220080000	      5.55251750426587170000	     -4.16535532910742570000	     21.86350912728825700000	     -7.55363101655788150000	      8.92356450737780270000	    -56.99378511137580700000	     -0.97110038606350257000	      0.00000000000030797935	     -0.00000000000109158783	      3.50981565492077820000	     12.09585704473191300000	      3.52973033571100590000	     -8.95052703708714150000	      6.83442055454398910000	     -0.00000000000000254509	      0.00000000000002289875	      1.43251812297436310000	     -4.03982237606074610000	      0.40363201473330418000	      1.31994787517941780000	      0.10479828496412757000	      0.00188478165179177260	      1.13505087494946280000	    -29.24472975246061100000	      3.85214365199853150000	    122.29288769305110000000	     56.66658762950151400000	     62.59134811043193700000	    199.11462793101012000000	     91.79356167169376600000	      0.00000000000092036541	     -0.00000000000282955581	   -158.89434238656639000000	    -28.95982126970844600000	     15.52475599609800700000	    118.71381053553324000000	     -2.30524541425934660000	      0.00000000000003093908	      0.00000000000035116305	    -15.00013941229914300000	     28.27733016850207200000	     -5.11746434772644680000
